<?xml version='1.0' encoding='iso-8859-1'?>
<!DOCTYPE svg PUBLIC '-//W3C//DTD SVG 1.1//EN' 'http://www.w3.org/Graphics/SVG/1.1/DTD/svg11.dtd'>
<svg version="1.1" xmlns="http://www.w3.org/2000/svg" viewBox="0 0 297 297" xmlns:xlink="http://www.w3.org/1999/xlink" enable-background="new 0 0 297 297">
  <g>
    <path d="m245.234,84.705c0-5.775-4.683-10.458-10.458-10.458h-172.552c-5.775,0-10.458,4.683-10.458,10.458v45.491h193.469v-45.491zm-169.939,35.033c-5.773,0-10.458-4.686-10.458-10.458 0-5.773 4.685-10.457 10.458-10.457 5.782,0 10.458,4.684 10.458,10.457 0,5.773-4.676,10.458-10.458,10.458zm29.281,0c-5.772,0-10.457-4.686-10.457-10.458 0-5.773 4.685-10.457 10.457-10.457 5.772,0 10.458,4.684 10.458,10.457 0,5.773-4.685,10.458-10.458,10.458zm29.282,0c-5.773,0-10.458-4.686-10.458-10.458 0-5.773 4.685-10.457 10.458-10.457 5.782,0 10.458,4.684 10.458,10.457 0,5.773-4.675,10.458-10.458,10.458zm29.282,0c-5.773,0-10.458-4.686-10.458-10.458 0-5.773 4.685-10.457 10.458-10.457 5.782,0 10.458,4.684 10.458,10.457 0,5.773-4.676,10.458-10.458,10.458zm29.282,0c-5.774,0-10.458-4.686-10.458-10.458 0-5.773 4.685-10.457 10.458-10.457 5.771,0 10.457,4.684 10.457,10.457 0,5.773-4.686,10.458-10.457,10.458zm29.281,0c-5.773,0-10.458-4.686-10.458-10.458 0-5.773 4.685-10.457 10.458-10.457 5.782,0 10.458,4.684 10.458,10.457 0,5.773-4.676,10.458-10.458,10.458z"/>
    <path d="m180.989,61.175c6.527-7.879 9.743-15.266 9.743-22.372 0-14.763-11.818-26.773-26.345-26.773-5.962,0-11.468,2.023-15.887,5.429-4.42-3.405-9.927-5.429-15.889-5.429-14.526,0-26.345,12.011-26.345,26.773 0,7.106 3.216,14.494 9.743,22.372h64.98z"/>
    <path d="m279.745,153.726c0-5.775-4.683-10.457-10.458-10.457h-241.574c-5.775,0-10.458,4.682-10.458,10.457v63.27h262.49v-63.27zm-219.09,51.765c-5.773,0-10.458-4.686-10.458-10.457 0-5.773 4.685-10.458 10.458-10.458 5.782,0 10.468,4.684 10.468,10.458 0,5.772-4.686,10.457-10.468,10.457zm29.281,0c-5.773,0-10.458-4.686-10.458-10.457 0-5.773 4.685-10.458 10.458-10.458 5.782,0 10.458,4.684 10.458,10.458 0,5.772-4.675,10.457-10.458,10.457zm29.283,0c-5.773,0-10.458-4.686-10.458-10.457 0-5.773 4.685-10.458 10.458-10.458 5.782,0 10.457,4.684 10.457,10.458 0,5.772-4.675,10.457-10.457,10.457zm29.281,0c-5.773,0-10.458-4.686-10.458-10.457 0-5.773 4.685-10.458 10.458-10.458 5.782,0 10.458,4.684 10.458,10.458 0,5.772-4.676,10.457-10.458,10.457zm29.282,0c-5.773,0-10.458-4.686-10.458-10.457 0-5.773 4.685-10.458 10.458-10.458 5.782,0 10.457,4.684 10.457,10.458 0,5.772-4.675,10.457-10.457,10.457zm29.282,0c-5.774,0-10.458-4.686-10.458-10.457 0-5.773 4.684-10.458 10.458-10.458 5.782,0 10.458,4.684 10.458,10.458-0.001,5.772-4.676,10.457-10.458,10.457zm29.281,0c-5.772,0-10.457-4.686-10.457-10.457 0-5.773 4.685-10.458 10.457-10.458 5.783,0 10.458,4.684 10.458,10.458 0,5.772-4.675,10.457-10.458,10.457z"/>
    <path d="m286.542,229.544h-276.084c-5.775,0-10.458,4.683-10.458,10.458 0,5.775 4.683,10.458 10.458,10.458h127.584v13.596h-24.053c-5.775,0-10.458,4.682-10.458,10.457s4.683,10.458 10.458,10.458h69.021c5.775,0 10.457-4.683 10.457-10.458s-4.682-10.457-10.457-10.457h-24.053v-13.596h127.584c5.775,0 10.458-4.683 10.458-10.458 0.001-5.775-4.682-10.458-10.457-10.458z"/>
  </g>
</svg>
