<svg version="1.1" id="Capa_1" xmlns="http://www.w3.org/2000/svg" xmlns:xlink="http://www.w3.org/1999/xlink" x="0px" y="0px"
   width="400px" height="400px" viewBox="0 0 100 100" style="enable-background:new 0 0 100 100;"
   xml:space="preserve">
 <g>
  <title>Layer 1</title>
  <g stroke="null" id="svg_1">
   <path stroke="null" d="m87.527,66.892899c-2.975914,-6.025597 -23.596214,-6.628868 -23.596214,-6.628868s20.089958,-10.241371 10.043732,-21.544407c-10.046238,-11.298283 -8.520576,-21.841291 -8.450203,-25.159286c-3.478611,1.135291 -8.447685,6.025593 -8.447685,6.025593s-1.968029,-1.306295 -0.957626,-8.585936c-32.071537,19.394955 -15.206329,49.142908 -11.157173,55.767019c-3.410748,-1.572304 -6.160454,-2.543716 -5.951836,-2.306198c-0.339314,0.033249 -0.65852,0.130623 -0.942543,0.280258c-6.836565,-4.116032 -12.690376,-9.578728 -14.630753,-12.811222c-0.826925,-1.370426 -1.231588,-5.177685 -1.661386,-9.203461c-0.497663,-4.681293 -1.053135,-9.887482 -2.412907,-12.747084c0.183481,-0.190004 0.306639,-0.444141 0.306639,-0.731527c0,-0.608021 -0.522795,-1.102039 -1.168749,-1.102039c-0.645956,0 -1.168753,0.498768 -1.168753,1.106791c0,0.610397 0.522797,1.104414 1.166239,1.104414c0.11059,0 0.208614,-0.033251 0.311666,-0.059376c1.289396,2.750351 1.834814,7.885284 2.327448,12.497704c0.454935,4.270405 0.844519,7.958916 1.739302,9.445717c1.769466,2.937981 6.688274,7.678654 12.650162,11.628422c-4.215042,-1.137665 -21.128005,-6.125351 -24.322592,-13.849125c0.354396,-0.190006 0.603227,-0.534397 0.603227,-0.942913c0,-0.608025 -0.522797,-1.102043 -1.168752,-1.102043c-0.643441,-0.004745 -1.166237,0.489273 -1.166237,1.097298c0,0.591393 0.495148,1.064037 1.115968,1.09491c3.662087,9.106083 24.742341,14.288525 25.659749,14.50703l1.153667,0.570015c-0.377014,0.408524 -0.615791,0.940536 -0.615791,1.527176c0,1.289673 1.105915,2.334717 2.470718,2.334717c0.992805,0 1.842354,-0.553391 2.236958,-1.351425c0.711304,0.912033 2.292263,2.610222 5.258125,4.213409c1.927811,1.045029 4.97662,1.930939 7.841946,3.588753l3.119186,2.631592c0,0 0.289047,0.18763 0.799274,0.479767c1.761921,1.961823 3.078976,4.602921 3.383095,8.329422c0.145779,-1.239792 0.889759,-3.681374 -0.613281,-6.947121c2.935703,1.280167 7.158283,2.522339 10.619289,1.149536c5.951843,-2.360832 4.250244,-4.270393 15.626091,-10.847015c-1.487961,-0.451263 -3.825462,-2.258698 -3.825462,-2.258698s1.487961,-1.102051 3.825462,-1.201797z" id="svg_2"/>
  </g>
  <g id="svg_3"/>
  <g id="svg_4"/>
  <g id="svg_5"/>
  <g id="svg_6"/>
  <g id="svg_7"/>
  <g id="svg_8"/>
  <g id="svg_9"/>
  <g id="svg_10"/>
  <g id="svg_11"/>
  <g id="svg_12"/>
  <g id="svg_13"/>
  <g id="svg_14"/>
  <g id="svg_15"/>
  <g id="svg_16"/>
  <g id="svg_17"/>
 </g>
</svg>