<?xml version="1.0" encoding="utf-8"?>
<!-- Generator: Adobe Illustrator 16.0.0, SVG Export Plug-In . SVG Version: 6.00 Build 0)  -->
<!DOCTYPE svg PUBLIC "-//W3C//DTD SVG 1.1//EN" "http://www.w3.org/Graphics/SVG/1.1/DTD/svg11.dtd">
<svg version="1.1" id="Layer_1" xmlns="http://www.w3.org/2000/svg" xmlns:xlink="http://www.w3.org/1999/xlink" x="0px" y="0px"
	 width="600px" height="400px" viewBox="0 0 600 400" enable-background="new 0 0 600 400" xml:space="preserve">
<rect x="0.117" y="0.857" fill="#B22234" width="599.844" height="400"/>
<rect x="0.039" y="24.928" fill="#FFFFFF" width="599.922" height="27.999"/>
<rect x="0.039" y="78.928" fill="#FFFFFF" width="599.922" height="28"/>
<rect x="0.039" y="132.928" fill="#FFFFFF" width="599.922" height="28"/>
<rect x="0.039" y="186.928" fill="#FFFFFF" width="599.922" height="28"/>
<rect x="0.039" y="240.928" fill="#FFFFFF" width="599.922" height="28"/>
<rect x="0.039" y="294.929" fill="#FFFFFF" width="599.922" height="27.999"/>
<rect x="0.039" y="348.929" fill="#FFFFFF" width="599.922" height="27.999"/>
<rect x="0.117" y="0.857" fill="#3C3B6E" width="229.182" height="162.375"/>
<g>
	<g>
		<g>
			<g id="s5">
				<g id="s4">
					<path id="s" fill="#FFFFFF" d="M19.722,8.144l5.468,16.83L10.874,14.572H28.57L14.254,24.973L19.722,8.144z"/>
					<g>
						<path id="s_1_" fill="#FFFFFF" d="M19.722,40.705l5.468,16.83l-14.316-10.4H28.57l-14.316,10.4L19.722,40.705z"/>
					</g>
					<g>
						<path id="s_2_" fill="#FFFFFF" d="M19.722,73.266l5.468,16.83L10.874,79.694H28.57L14.254,90.096L19.722,73.266z"/>
					</g>
					<g>
						<path id="s_3_" fill="#FFFFFF" d="M19.722,105.827l5.468,16.829l-14.316-10.4H28.57l-14.316,10.4L19.722,105.827z"/>
					</g>
				</g>
				<g>
					<path id="s_4_" fill="#FFFFFF" d="M19.722,138.388l5.468,16.83l-14.316-10.402H28.57l-14.316,10.402L19.722,138.388z"/>
				</g>
			</g>
			<g id="s9">
				<g id="s4_1_">
					<path id="s_5_" fill="#FFFFFF" d="M38.871,24.424l5.467,16.829l-14.315-10.4h17.695l-14.315,10.4L38.871,24.424z"/>
					<g>
						<path id="s_6_" fill="#FFFFFF" d="M38.871,56.985l5.467,16.83L30.023,63.414h17.695L33.403,73.814L38.871,56.985z"/>
					</g>
					<g>
						<path id="s_7_" fill="#FFFFFF" d="M38.871,89.546l5.467,16.83L30.023,95.976h17.695l-14.315,10.401L38.871,89.546z"/>
					</g>
					<g>
						<path id="s_8_" fill="#FFFFFF" d="M38.871,122.107l5.467,16.829l-14.315-10.4h17.695l-14.315,10.4L38.871,122.107z"/>
					</g>
				</g>
			</g>
			<g>
				<g id="s18">
					<g id="s5_1_">
						<g id="s4_2_">
							<path id="s_9_" fill="#FFFFFF" d="M58.02,8.144l5.47,16.83L49.173,14.572h17.696L52.554,24.973L58.02,8.144z"/>
							<g>
								<path id="s_10_" fill="#FFFFFF" d="M58.02,40.705l5.47,16.83l-14.317-10.4h17.696l-14.315,10.4L58.02,40.705z"/>
							</g>
							<g>
								<path id="s_11_" fill="#FFFFFF" d="M58.02,73.266l5.47,16.83L49.173,79.694h17.696L52.554,90.096L58.02,73.266z"/>
							</g>
							<g>
								<path id="s_12_" fill="#FFFFFF" d="M58.02,105.827l5.47,16.829l-14.317-10.4h17.696l-14.315,10.4L58.02,105.827z"/>
							</g>
						</g>
						<g>
							<path id="s_13_" fill="#FFFFFF" d="M58.02,138.388l5.47,16.83l-14.317-10.402h17.696l-14.315,10.402L58.02,138.388z"/>
						</g>
					</g>
					<g id="s9_1_">
						<g id="s4_3_">
							<path id="s_14_" fill="#FFFFFF" d="M77.169,24.424l5.468,16.829l-14.315-10.4h17.696l-14.317,10.4L77.169,24.424z"/>
							<g>
								<path id="s_15_" fill="#FFFFFF" d="M77.169,56.985l5.468,16.83L68.322,63.414h17.696L71.701,73.814L77.169,56.985z"/>
							</g>
							<g>
								<path id="s_16_" fill="#FFFFFF" d="M77.169,89.546l5.468,16.83L68.322,95.976h17.696l-14.317,10.401L77.169,89.546z"/>
							</g>
							<g>
								<path id="s_17_" fill="#FFFFFF" d="M77.169,122.107l5.468,16.829l-14.315-10.4h17.696l-14.317,10.4L77.169,122.107z"/>
							</g>
						</g>
					</g>
				</g>
				<g>
					<g>
						<g>
							<g id="s5_2_">
								<g id="s4_4_">
									<path id="s_18_" fill="#FFFFFF" d="M96.318,8.144l5.467,16.83L87.472,14.572h17.695L90.851,24.973L96.318,8.144z"/>
									<g>
										<path id="s_19_" fill="#FFFFFF" d="M96.318,40.705l5.467,16.83l-14.314-10.4h17.695l-14.316,10.4L96.318,40.705z"/>
									</g>
									<g>
										<path id="s_20_" fill="#FFFFFF" d="M96.318,73.266l5.467,16.83L87.472,79.694h17.695L90.851,90.096L96.318,73.266z"/>
									</g>
									<g>
										<path id="s_21_" fill="#FFFFFF" d="M96.318,105.827l5.467,16.829l-14.314-10.4h17.695l-14.316,10.4L96.318,105.827z"/>
									</g>
								</g>
								<g>
									<path id="s_22_" fill="#FFFFFF" d="M96.318,138.388l5.467,16.83l-14.314-10.402h17.695l-14.316,10.402L96.318,138.388z"/>
								</g>
							</g>
							<g id="s9_2_">
								<g id="s4_5_">
									<path id="s_23_" fill="#FFFFFF" d="M115.467,24.424l5.469,16.829l-14.317-10.4h17.697L110,41.253L115.467,24.424z"/>
									<g>
										<path id="s_24_" fill="#FFFFFF" d="M115.467,56.985l5.469,16.83l-14.317-10.401h17.697L110,73.814L115.467,56.985z"/>
									</g>
									<g>
										<path id="s_25_" fill="#FFFFFF" d="M115.467,89.546l5.469,16.83l-14.317-10.401h17.697L110,106.376L115.467,89.546z"/>
									</g>
									<g>
										<path id="s_26_" fill="#FFFFFF" d="M115.467,122.107l5.469,16.829l-14.317-10.4h17.697L110,138.937L115.467,122.107z"/>
									</g>
								</g>
							</g>
							<g>
								<g id="s18_1_">
									<g id="s5_3_">
										<g id="s4_6_">
											<path id="s_27_" fill="#FFFFFF" d="M134.616,8.144l5.468,16.83l-14.316-10.401h17.697l-14.317,10.401L134.616,8.144z"/>
											<g>
												<path id="s_28_" fill="#FFFFFF" d="M134.616,40.705l5.468,16.83l-14.316-10.4h17.697l-14.317,10.4L134.616,40.705z"/>
											</g>
											<g>
												<path id="s_29_" fill="#FFFFFF" d="M134.616,73.266l5.468,16.83l-14.316-10.402h17.697l-14.317,10.402L134.616,73.266z"
													/>
											</g>
											<g>
												<path id="s_30_" fill="#FFFFFF" d="M134.616,105.827l5.468,16.829l-14.316-10.4h17.697l-14.317,10.4L134.616,105.827z"
													/>
											</g>
										</g>
										<g>
											<path id="s_31_" fill="#FFFFFF" d="M134.616,138.388l5.468,16.83l-14.316-10.402h17.697l-14.317,10.402L134.616,138.388z
												"/>
										</g>
									</g>
									<g id="s9_3_">
										<g id="s4_7_">
											<path id="s_32_" fill="#FFFFFF" d="M153.766,24.424l5.468,16.829l-14.315-10.4h17.696l-14.315,10.4L153.766,24.424z"/>
											<g>
												<path id="s_33_" fill="#FFFFFF" d="M153.766,56.985l5.468,16.83l-14.315-10.401h17.696l-14.315,10.401L153.766,56.985z"
													/>
											</g>
											<g>
												<path id="s_34_" fill="#FFFFFF" d="M153.766,89.546l5.468,16.83l-14.315-10.401h17.696l-14.315,10.401L153.766,89.546z"
													/>
											</g>
											<g>
												<path id="s_35_" fill="#FFFFFF" d="M153.766,122.107l5.468,16.829l-14.315-10.4h17.696l-14.315,10.4L153.766,122.107z"
													/>
											</g>
										</g>
									</g>
								</g>
								<g>
									<g>
										<g id="s5_4_">
											<g id="s4_8_">
												<path id="s_36_" fill="#FFFFFF" d="M172.914,8.144l5.47,16.83l-14.317-10.401h17.697l-14.316,10.401L172.914,8.144z"/>
												<g>
													<path id="s_37_" fill="#FFFFFF" d="M172.914,40.705l5.47,16.83l-14.317-10.4h17.697l-14.316,10.4L172.914,40.705z"/>
												</g>
												<g>
													<path id="s_38_" fill="#FFFFFF" d="M172.914,73.266l5.47,16.83l-14.317-10.402h17.697l-14.316,10.402L172.914,73.266z"
														/>
												</g>
												<g>
													<path id="s_39_" fill="#FFFFFF" d="M172.914,105.827l5.47,16.829l-14.317-10.4h17.697l-14.316,10.4L172.914,105.827z"
														/>
												</g>
											</g>
											<g>
												<path id="s_40_" fill="#FFFFFF" d="M172.914,138.388l5.47,16.83l-14.317-10.402h17.697l-14.316,10.402L172.914,138.388z
													"/>
											</g>
										</g>
										<g id="s9_4_">
											<g id="s4_9_">
												<path id="s_41_" fill="#FFFFFF" d="M192.064,24.424l5.468,16.829l-14.316-10.4h17.696l-14.316,10.4L192.064,24.424z"/>
												<g>
													<path id="s_42_" fill="#FFFFFF" d="M192.064,56.985l5.468,16.83l-14.316-10.401h17.696l-14.316,10.401L192.064,56.985z
														"/>
												</g>
												<g>
													<path id="s_43_" fill="#FFFFFF" d="M192.064,89.546l5.468,16.83l-14.316-10.401h17.696l-14.316,10.401L192.064,89.546z
														"/>
												</g>
												<g>
													<path id="s_44_" fill="#FFFFFF" d="M192.064,122.107l5.468,16.829l-14.316-10.4h17.696l-14.316,10.4L192.064,122.107z"
														/>
												</g>
											</g>
										</g>
										<g>
											<g id="s5_5_">
												<g id="s4_10_">
													<path id="s_45_" fill="#FFFFFF" d="M211.213,8.144l5.468,16.83l-14.315-10.401h17.695l-14.315,10.401L211.213,8.144z"
														/>
													<g>
														<path id="s_46_" fill="#FFFFFF" d="M211.213,40.705l5.468,16.83l-14.315-10.4h17.695l-14.315,10.4L211.213,40.705z"/>
													</g>
													<g>
														<path id="s_47_" fill="#FFFFFF" d="M211.213,73.266l5.468,16.83l-14.315-10.402h17.695l-14.315,10.402L211.213,73.266
															z"/>
													</g>
													<g>
														<path id="s_48_" fill="#FFFFFF" d="M211.213,105.827l5.468,16.829l-14.315-10.4h17.695l-14.315,10.4L211.213,105.827z
															"/>
													</g>
												</g>
												<g>
													<path id="s_49_" fill="#FFFFFF" d="M211.213,138.388l5.468,16.83l-14.315-10.402h17.695l-14.315,10.402
														L211.213,138.388z"/>
												</g>
											</g>
										</g>
									</g>
								</g>
							</g>
						</g>
					</g>
				</g>
			</g>
		</g>
	</g>
</g>
</svg>
