<?xml version="1.0" encoding="utf-8"?>
<!-- Generator: Adobe Illustrator 16.0.0, SVG Export Plug-In . SVG Version: 6.00 Build 0)  -->
<!DOCTYPE svg PUBLIC "-//W3C//DTD SVG 1.1//EN" "http://www.w3.org/Graphics/SVG/1.1/DTD/svg11.dtd">
<svg version="1.1" id="Layer_1" xmlns="http://www.w3.org/2000/svg" xmlns:xlink="http://www.w3.org/1999/xlink" x="0px" y="0px"
	 width="400px" height="400px" viewBox="0 0 400 400" enable-background="new 0 0 400 400" xml:space="preserve">
<g>
	<path fill-rule="evenodd" clip-rule="evenodd" fill="#252123" d="M169.519,300.049c0.828-2.263,1.625-4.52,1.703-6.98
		c0.064-2.015,1.239-3.647,2.164-5.342c0.484-0.887,1.108-1.694,1.628-2.563c1.538-2.57,3.445-3.096,5.89-1.496
		c0.878,0.574,1.342,0.172,1.874-0.434c1.097-1.248,2.412-1.388,3.819-0.612c0.644,0.354,1.279,0.438,1.95,0.24
		c2.421-0.712,4.319,0.088,5.206,2.387c0.504,1.309,0.94,2.647,0.923,4.123c-0.063,5.417,0.013,10.837-0.067,16.254
		c-0.035,2.293-0.534,4.58-0.94,6.811c-0.554,3.042-0.718,6.06-0.567,9.085c0.367,7.398-0.909,14.711-0.999,22.086
		c-0.021,1.771-0.75,3.544-0.683,5.388c0.034,0.95-0.014,1.904,0.438,2.779c0.326,0.632,0.389,1.309,0.278,1.98
		c-1.021,6.256-1.67,12.538-1.638,18.889c0.009,1.743-0.932,3.38-0.734,5.187c0.116,1.06,0.046,2.077,0.563,3.133
		c0.818,1.669-0.676,6.521-2.323,7.289c-1.87,0.871-4.054,0.776-5.943,0.133c-4.354-1.485-4.812-2.759-5.272-7.387
		c-0.666-6.684-1.317-13.436-0.549-20.04c0.958-8.241,0.004-16.483,0.842-24.643c0.604-5.872,0.372-11.745,0.909-17.605
		c0.259-2.829,0.345-5.742,0.029-8.719c-2.131,5.009-4.139,10.035-5.687,15.239c-1.024,0.001-1.18,0.65-1.178,1.492
		c0.002,1.003-0.406,1.986-0.512,2.912c-0.301,2.63-1.24,5.044-1.876,7.559c-0.713,2.819-1.346,5.675-2.053,8.492
		c-0.85,3.39-2.095,6.687-2.918,10.104c-0.681,2.83-1.573,5.609-2.265,8.438c-0.663,2.712-1.188,5.459-1.774,8.19
		c-1.131,4.411-2.943,8.572-4.592,12.8c-0.75,1.925-1.865,3.146-3.826,3.759c-2.224,0.695-3.435,0.408-4.51-1.744
		c-2.381-4.769-5.874-8.937-7.567-14.07c-1.592-4.824-4.052-9.31-5.527-14.18c-0.028-2.638-1.063-5.081-1.495-7.624
		c-0.985-5.805-4.361-10.743-5.598-16.449c-0.602-2.778-1.985-5.389-2.57-8.168c-0.963-4.58-2.545-8.983-3.617-13.529
		c-0.192-0.817-0.06-2.655-1.538-2.382c-1.194,0.221-0.628,1.747-0.631,2.677c-0.039,13.071,0.138,26.146-0.1,39.214
		c-0.117,6.424-1.036,12.794-0.002,19.265c0.559,3.499,0.063,7.163,0.091,10.752c0.009,1.101-0.219,2.014-1.262,2.549
		c-1.015,0.521-2.017,1.073-3.063,1.521c-2.061,0.884-3.499,0.011-4.837-1.757c-1.872-2.473-1.693-5.444-1.992-8.067
		c-0.451-3.966-1.341-7.927-1.109-12.005c0.284-4.987-1.244-9.913-0.816-14.935c0.011-0.132-0.032-0.268-0.051-0.401
		c-0.777-5.681-1.265-11.396-1.443-17.118c-0.19-6.09-0.073-12.19-0.088-18.285c-0.011-4.471,0.274-8.965-0.104-13.403
		c-0.43-5.06-0.734-10.104-0.664-15.175c0.008-0.589-0.122-1.202,0.372-1.721c2.003-2.104,7.217-3.085,9.989-1.889
		c0.901,0.39,1.801,0.572,2.858,0.573c2.218,0.004,4.612,0.619,6.017,2.258c1.962,2.288,3.014,5.345,3.38,8.274
		c0.312,2.5,1.443,4.571,2.229,6.796c1.264,3.58,3.651,6.682,4.74,10.391c0.18,0.612,0.262,1.688,1.301,1.882h0
		c1.208,3.229,2.399,6.462,3.628,9.681c1.354,3.549,3.146,6.904,3.887,10.727c0.257,1.322,0.186,2.96,1.22,4.153
		c2.662,3.072,3.175,7.064,4.136,10.742c0.913,3.495,2.248,6.908,2.704,10.533c0.048,0.377,0.533,0.816,0.923,1.003
		c0.475,0.228,0.706-0.299,0.843-0.652c1.273-3.291,2.987-6.499,3.655-9.912c0.788-4.021,2.084-7.861,3.139-11.784
		c0.694-2.581,1.971-5.044,2.533-7.59c0.927-4.203,3.066-7.96,3.902-12.15c0.408-2.044,1.371-3.926,2.14-5.805
		c1.128-2.756,1.597-5.642,2.542-8.404C169.298,301.844,169.509,300.988,169.519,300.049z"/>
	<path fill-rule="evenodd" clip-rule="evenodd" fill="#252123" d="M250.851,373.261c3.8-0.729,7.599-1.453,11.397-2.191
		c2.028-0.395,4.085-0.442,6.137-0.897c3.784-0.838,7.705-1.088,11.579-1.484c1.461-0.149,2.93-0.064,3.407,1.851
		c0.22,0.885,0.881,1.113,1.732,0.646c1.13-0.619,2.402-0.563,3.568-0.364c1.351,0.229,2.534,0.676,2.907,2.481
		c0.497,2.403,1.813,4.622,1.474,7.226c-0.114,0.881-0.081,1.759-0.771,2.437c-1.051,0.148-2.348-0.412-3.121,0.437
		c-1.549,1.699-3.746,1.582-5.574,1.842c-3.955,0.563-7.983,0.238-12.009,0.864c-3.511,0.547-6.986,1.368-10.433,2.079
		c-3.278,0.676-6.616,1.371-9.905,1.946c-2.453,0.428-4.94,1.03-7.507,1.154c-1.88,0.09-3.863,0.422-5.745,0.851
		c-3.138,0.714-6.319,1.088-9.497,1.34c-3.158,0.251-6.352,0.079-9.529,0.084c-3.279,0.005-3.862-0.597-4.82-3.821
		c-0.354-1.188-0.326-2.651-1.516-3.521l0.006-0.007c-0.076-2.54-0.253-5.04-0.646-7.586c-0.672-4.35,0.104-8.86-0.956-13.24
		c-0.426-1.761,0.722-3.429,0.69-5.12c-0.225-12.235,0.375-24.462-0.484-36.722c-0.54-7.709-1.346-15.466-1.104-23.239
		c0.084-2.722,0.018-2.772-2.808-2.701c-3.447,0.085-6.49-0.858-8.972-3.31c-1.769-1.747-1.088-6.396,1.245-7.228
		c2.51-0.895,4.875-1.952,7.019-3.512c0.511-0.371,1.169-0.396,1.65-0.668c1.702-0.96,3.587-0.476,5.328-0.881
		c3.39-0.789,6.796-1.446,10.274-1.459c14.363-0.047,28.727-0.025,43.09-0.044c1.332-0.002,2.611-0.295,3.926-0.575
		c2.419-0.517,4.838-1.736,7.477-0.758c1.601,0.594,3.298,0.927,4.951,1.378c3.234,2.482,2.3,5.214,0.485,8.004
		c-0.182,0.28-0.326,0.584-0.488,0.876c-1.47-0.413-1.497,1.222-2.378,1.7c-1.18,0.641-2.369,1.343-3.261,2.407h-0.002
		c-6.055,0.344-12.13-0.563-18.19,0.685c-3.244,0.668-6.646,0.349-9.998,0.737c-4.986,0.576-9.809,1.772-14.696,2.707
		c-1.36,0.26-2.654,0.759-4.093,0.83c-1.575,0.078-3.182,2.228-2.527,3.698c1.366,3.068,0.832,6.369,1.243,9.488
		c0.527,3.999,1.092,8.103,1.09,12.2c-0.001,1.423-0.002,2.845,0.019,4.268c0.041,2.794,1.273,3.503,3.927,2.518
		c1.663-0.619,3.431-0.999,5.18-1.337c2.356-0.455,4.771-0.645,7.124-1.011c4.178-0.648,8.344-1.274,12.564-1.399
		c3.723-0.111,7.468,0.168,11.171-0.122c2.842-0.222,4.744,0.87,6.434,2.915c0.798,0.965,0.856,1.764,0.385,2.934
		c-0.438,1.088-1.849,1.377-1.967,2.354c-0.32,2.649-2.569,2.837-4.293,3.662c-1.31,0.627-2.912,0.027-4.187,0.563
		c-2.598,1.091-5.417,1.045-8.042,1.265c-3.802,0.319-7.542,1.448-11.401,1.104c-0.257-0.022-0.523,0.143-0.79,0.173
		c-4.072,0.457-8.138,1.047-12.223,1.314c-3.833,0.252-3.849,0.135-3.876,3.951c-0.038,5.28,0.287,10.607-0.31,15.827
		c-0.527,4.609-0.356,9.18-0.508,13.767c-0.023,0.711,0.07,1.437,1.005,1.455c1.079,0.021,2.255,0.213,3.226-0.132
		c4.162-1.477,8.461-2.317,12.751-3.279C248.018,374.369,249.812,374.69,250.851,373.261z"/>
	<path fill-rule="evenodd" clip-rule="evenodd" fill="#252123" d="M270.328,24.339c-1.592,0.934-2.441,2.498-3.437,3.958
		c-0.652,0.958-1.625,1.311-2.835,1.164c-2.541-0.308-5.022-0.337-7.589,0.358c-1.904,0.516-4.053,0.375-6.063,0.204
		c-3.744-0.319-7.325,0.986-11.034,0.896c-1.157-0.028-1.692,0.67-1.647,1.835c0.301,7.835-0.446,15.7,0.713,23.515
		c0.227,1.53,0.171,3.11,0.161,4.666c-0.035,6.15,0.067,12.32,0.265,18.442c0.159,4.956,0.737,9.958,0.387,14.903
		c-0.34,4.781,0.066,9.509,0.087,14.261c0.008,1.883,0.136,3.717,0.652,5.598c0.788,2.872-0.14,5.776-1.029,8.502
		c-0.847,2.594-3.38,3.652-6.112,3.058c-1.083-0.236-2.214-0.861-3.178,0.285c-0.334,0.045-0.696,0.021-0.996,0.145
		c-2.612,1.082-2.932,1.009-4.125-1.5c-1.98-4.166-2.478-8.727-2.919-13.199c-0.43-4.357-0.112-8.788-0.134-13.186
		c-0.004-0.674,0.085-1.405-0.139-2.011c-1.094-2.957-0.689-6.112-1.291-9.155c-0.634-3.204-0.107-6.585-0.542-9.888
		c-0.788-5.986-0.301-12.022-0.459-18.035c-0.032-1.221,0.009-2.443-0.759-3.498c0.012-0.134,0.01-0.268-0.005-0.401
		c0.157-6.898-1.34-13.723-0.875-20.642c0.167-2.495-0.426-2.809-2.949-2.935c-5.495-0.275-10.892,1.2-16.389,0.811
		c-1.788-0.126-3.283-0.321-3.658-2.604c-0.149-0.91-0.342-1.724-0.293-2.691c0.07-1.423,0.138-3.025-1.155-4.108
		c-0.663-0.555-0.76-1.231-0.711-1.998c1.403-0.418,1.87-2.321,3.406-2.359c2.111-0.052,4.171-0.791,6.198-0.752
		c6.359,0.118,12.61-1.213,18.979-1.04c3.853,0.104,7.708,0.208,11.634-0.515c4.096-0.754,8.405-0.621,12.608-0.859
		c6.515-0.37,13.06-0.43,19.577-0.961c0.538-0.043,1.089-0.012,1.547-0.38c0.605-0.488,1.228-0.32,1.914-0.145
		c3.768,0.966,4.914,3.606,3.129,7.657C270.893,22.569,270.084,23.276,270.328,24.339z"/>
	<path fill-rule="evenodd" clip-rule="evenodd" fill="#252123" d="M132.734,20.18c-0.443-1.513,0.499-2.682,0.982-3.965
		c1.253-0.825,2.592-0.736,4.044-0.677c2.471,0.102,5.005,0.078,7.427-0.365c3.012-0.551,5.96-1.429,9.061-1.415
		c0.539,0.002,1.156,0.101,1.604-0.118c4.359-2.136,9.221-1.117,13.768-2.196c1.705-0.405,3.395-0.513,4.787-1.687
		c3.506-0.019,3.562,0.033,3.293,3.704c-0.052,0.717,0.242,1.304,0.474,1.94c1.093,2.995-0.682,5.5-3.85,5.689
		c-2.398,0.143-4.845-0.436-7.198,0.65c-1.164,0.537-1.653,1.261-1.657,2.468c-0.007,1.963-0.127,3.931-0.053,5.891
		c0.246,6.505-0.997,12.95-0.771,19.447c0.282,8.115,0.036,16.229-0.174,24.334c-0.152,5.875,0.399,11.735,0.064,17.602
		c-0.135,2.358-0.229,4.719-0.382,7.076c-0.281,4.339,0.485,8.641,0.417,12.971c-0.022,1.414,0.615,1.88,2.051,1.657
		c2.44-0.377,4.906-0.162,7.378-0.837c3.048-0.833,5.483,0.8,7.31,3.21c1.193,1.574,0.319,4.137-1.564,4.759
		c-2.621,0.865-5.372,1.106-8.061,1.649c-3.261,0.658-6.506,1.398-9.757,2.104c-0.262,0.057-0.522,0.194-0.781,0.188
		c-4.33-0.099-8.553,1.25-12.91,0.9c-1.519-0.122-3.02-0.043-4.548,0.605c-2.086,0.886-3.733-0.543-3.342-2.708
		c0.2-1.109,0.453-2.29,1.024-3.231c0.778-1.281,1.91-2.094,3.667-2.015c2.486,0.111,3.181-0.953,2.27-3.292
		c-0.41-1.052-0.492-2.09-0.559-3.166c0.367-2.665-0.818-5.198-0.766-7.791c0.083-4.106-0.974-8.195-0.116-12.306
		c0.121-0.577,0.094-1.249-0.079-1.812c-1.355-4.423-1.115-9.083-1.291-13.546c-0.544-13.83-0.387-27.697,0.643-41.523
		c0.196-2.632,0.625-5.26,1.369-7.808c0.208-0.709,0.015-1.147-0.456-1.612c-0.494-0.487-1.03-0.714-1.617-0.268
		c-0.589,0.448-1.249,0.554-1.918,0.473c-1.958-0.238-3.746,0.49-5.411,1.237c-1.657,0.743-2.834-0.249-3.875-0.854
		c-0.772-0.449-0.443-1.915,0.14-2.958C133.866,21.705,134.261,20.627,132.734,20.18z"/>
	<path fill-rule="evenodd" clip-rule="evenodd" fill="#143559" d="M17.433,138.199c0.396-1.265,1.457-0.753,2.235-0.754
		c23.105-0.032,46.21-0.034,69.315-0.042c35.505-0.012,71.021,0.548,106.512-0.167c61.137-1.231,122.272-0.16,183.405-0.653
		c0.666-0.006,1.343,0.096,1.974-0.295c1.502-0.933,2.092,0.091,2.453,1.279c0.171,0.561,0.061,1.21,0.061,1.819
		c0.001,40.858,0.001,81.715,0,122.572c0,0.476-0.029,0.95-0.011,1.424c0.063,1.561-0.763,1.93-2.064,1.455
		c-2.432-0.887-4.82-0.848-7.264-0.024c-0.74,0.249-1.602,0.188-2.407,0.188c-108.614,0.038-217.229,0.067-325.844,0.097
		c-7.372,0.003-14.744,0.027-22.115-0.017c-1.876-0.011-3.707,0.65-5.644,0.074c-1.093-0.325-1.373-0.765-1.373-1.8
		c0.008-40.969-0.006-81.938,0.009-122.907c0-0.78-0.487-1.838,0.756-2.246c0.493,26.439-0.598,52.882,0.653,79.33
		c0.695,14.671,0.162,29.401,0.096,44.105c-0.009,1.94,0.363,2.693,2.538,2.688c30.22-0.08,60.442,0.125,90.661-0.118
		c30.234-0.243,60.48,0.982,90.706-0.691c3.534-0.196,7.082,0.264,10.624,0.541c4.631,0.363,9.411,0.863,14.064-0.539
		c2.14-0.645,4.201,0.595,6.334,0.72c3.776,0.221,7.425-0.847,11.221-0.838c45.194,0.104,90.391,0.052,135.586,0.082
		c1.84,0.001,2.753-0.206,2.748-2.477c-0.077-40.248-0.059-80.497-0.063-120.747c0-2.852-0.008-2.904-2.887-2.847
		c-18.442,0.368-36.894,0.349-55.334,0.542c-57.589,0.604-115.188,0.237-172.783,0.242C106.875,138.2,62.154,138.198,17.433,138.199
		z"/>
	<path fill-rule="evenodd" clip-rule="evenodd" fill="#133960" d="M133.731,312.225c-1.039-0.193-1.121-1.27-1.301-1.882
		c-1.088-3.709-3.476-6.811-4.74-10.391c-0.786-2.225-1.917-4.296-2.229-6.796c-0.366-2.93-1.418-5.986-3.38-8.274
		c-1.405-1.639-3.798-2.254-6.017-2.258c-1.057-0.001-1.957-0.184-2.858-0.573c-2.772-1.196-7.986-0.215-9.989,1.889
		c-0.494,0.519-0.364,1.132-0.372,1.721c-0.07,5.071,0.233,10.115,0.664,15.175c0.378,4.438,0.093,8.933,0.104,13.403
		c0.015,6.095-0.102,12.195,0.088,18.285c0.178,5.723,0.666,11.438,1.443,17.118c0.019,0.134,0.062,0.27,0.051,0.401
		c-0.428,5.021,1.101,9.947,0.816,14.935c-0.232,4.078,0.658,8.039,1.109,12.005c0.298,2.623,0.12,5.595,1.992,8.067
		c1.338,1.768,2.777,2.641,4.837,1.757c1.046-0.448,2.048-1.001,3.063-1.521c1.043-0.535,1.271-1.448,1.262-2.549
		c-0.027-3.589,0.468-7.253-0.091-10.752c-1.033-6.471-0.115-12.841,0.002-19.265c0.238-13.067,0.061-26.143,0.1-39.214
		c0.003-0.93-0.563-2.456,0.631-2.677c1.478-0.273,1.345,1.564,1.538,2.382c1.072,4.546,2.654,8.949,3.617,13.529
		c0.584,2.779,1.968,5.39,2.57,8.168c1.236,5.706,4.612,10.645,5.598,16.449c0.431,2.543,1.466,4.986,1.495,7.624
		c-1.5-1.821-1.925-4.191-2.242-6.29c-0.452-2.987-1.45-5.706-2.597-8.388c-2.074-4.853-3.348-9.947-4.974-14.938
		c-1.298-3.984-2.331-8.012-3.246-12.088c-0.184-0.819-0.668-1.571-1.025-2.379c-0.841,0.435-0.554,1.124-0.555,1.667
		c-0.014,7.452-0.121,14.908,0.044,22.357c0.147,6.623-0.21,13.235-0.122,19.855c0.018,1.272-0.275,2.546-0.366,3.823
		c-0.276,3.888,0.679,7.707,0.706,11.57c0.024,3.443-0.131,6.893-0.353,10.329c-0.113,1.739-2.057,1.753-3.064,2.678
		c-1.594,1.463-6.271,0.907-7.565-0.792c-0.803-1.057-1.143-2.327-1.52-3.636c-1.075-3.736-0.27-7.665-1.414-11.359
		c-0.06-0.192-0.123-0.4-0.11-0.597c0.334-5.199-0.539-10.373-1.099-15.465c-0.678-6.164-0.152-12.353-1.172-18.506
		c-0.639-3.855-0.458-7.918-0.31-11.904c0.184-4.933-0.476-9.918-0.157-14.795c0.472-7.209-0.917-14.295-0.575-21.451
		c0.063-1.316-1.121-2.426-0.175-4.01c0.521-0.872,0.879-1.598,1.787-2.112c3.168-1.794,6.32-2.566,10.041-1.461
		c2.252,0.67,4.63,0.843,6.949,1.65c2.201,0.766,3.29,2.152,3.927,3.928c1.589,4.429,2.888,8.962,4.339,13.441
		c0.247,0.76,0.556,1.553,1.04,2.172c1.844,2.365,2.243,5.37,3.604,7.947C133.822,310.777,133.676,311.554,133.731,312.225z"/>
	<path fill-rule="evenodd" clip-rule="evenodd" fill="#143559" d="M250.851,373.261c-1.039,1.43-2.833,1.108-4.167,1.407
		c-4.29,0.962-8.589,1.803-12.751,3.279c-0.971,0.345-2.146,0.153-3.226,0.132c-0.935-0.019-1.028-0.744-1.005-1.455
		c0.151-4.587-0.02-9.157,0.508-13.767c0.597-5.22,0.271-10.547,0.31-15.827c0.027-3.816,0.043-3.699,3.876-3.951
		c4.085-0.268,8.15-0.857,12.223-1.314c0.267-0.03,0.533-0.195,0.79-0.173c3.859,0.345,7.6-0.784,11.401-1.104
		c2.625-0.22,5.444-0.174,8.042-1.265c1.274-0.535,2.877,0.064,4.187-0.563c1.724-0.825,3.973-1.013,4.293-3.662
		c0.118-0.978,1.528-1.267,1.967-2.354c0.472-1.17,0.413-1.969-0.385-2.934c-1.689-2.045-3.592-3.137-6.434-2.915
		c-3.703,0.29-7.448,0.011-11.171,0.122c-4.221,0.125-8.387,0.751-12.564,1.399c-2.354,0.366-4.768,0.556-7.124,1.011
		c-1.749,0.338-3.517,0.718-5.18,1.337c-2.653,0.985-3.886,0.276-3.927-2.518c-0.021-1.423-0.02-2.845-0.019-4.268
		c0.002-4.098-0.563-8.201-1.09-12.2c-0.411-3.119,0.123-6.42-1.243-9.488c-0.654-1.471,0.952-3.62,2.527-3.698
		c1.438-0.071,2.732-0.57,4.093-0.83c4.888-0.935,9.71-2.131,14.696-2.707c3.352-0.389,6.754-0.069,9.998-0.737
		c6.061-1.247,12.136-0.341,18.19-0.685c-1.779,1.003-3.729,1.478-5.732,1.537c-3.317,0.099-6.653,0.224-9.959-0.005
		c-4.75-0.329-9.437,0.405-14.049,1.067c-4.362,0.626-8.866,0.983-13.059,2.816c-1.433,0.627-3.247,0.524-4.844,1.067
		c-0.918,0.313-1.304,0.78-0.939,1.624c1.12,2.598,0.905,5.471,1.16,8.121c0.512,5.328,1.637,10.679,1.031,16.083
		c-0.144,1.289,0.426,2.432,0.365,3.71c-0.049,1.033,1.063,0.637,1.585,0.492c2.194-0.608,4.403-1.181,6.584-1.792
		c2.145-0.6,4.379-1.069,6.468-1.2c6.261-0.392,12.499-1.38,18.81-1.018c2.557,0.146,5.145,0.173,7.691-0.049
		c3.436-0.299,7.073,3.859,5.485,7.166c-1.085,2.261-2.351,5.268-5.503,5.859c-3.218,0.605-6.375,1.443-9.674,1.785
		c-4.64,0.479-9.274,1.12-13.899,1.731c-2.129,0.282-4.258,0.348-6.375,0.604c-3.131,0.381-6.238,0.883-9.411,0.936
		c-0.974,0.016-2.038,0.255-1.525,2.165c0.507,1.89,0.712,4.142-0.353,6.135c-0.15,0.281-0.198,0.656-0.184,0.982
		c0.303,6.91-0.606,13.771-0.821,20.658c-0.103,3.249,0.541,3.346,3.7,2.721c3.882-0.769,7.521-2.398,11.512-2.813
		C247.418,373.746,249.079,373.058,250.851,373.261z"/>
	<path fill-rule="evenodd" clip-rule="evenodd" fill="#143559" d="M283.311,280.547c-1.653-0.451-3.351-0.784-4.951-1.378
		c-2.639-0.979-5.058,0.241-7.477,0.758c-1.314,0.28-2.594,0.573-3.926,0.575c-14.363,0.019-28.727-0.003-43.09,0.044
		c-3.479,0.013-6.885,0.67-10.274,1.459c-1.741,0.405-3.626-0.079-5.328,0.881c-0.481,0.272-1.14,0.297-1.65,0.668
		c-2.144,1.56-4.509,2.617-7.019,3.512c-2.333,0.832-3.014,5.48-1.245,7.228c2.482,2.451,5.525,3.395,8.972,3.31
		c2.825-0.071,2.892-0.021,2.808,2.701c-0.242,7.773,0.563,15.53,1.104,23.239c0.859,12.26,0.26,24.486,0.484,36.722
		c0.031,1.691-1.116,3.359-0.69,5.12c1.061,4.38,0.284,8.891,0.956,13.24c0.394,2.546,0.57,5.046,0.646,7.586
		c-1.386-2.814-1.19-5.952-1.477-8.913c-0.428-4.424-1.43-8.887-0.887-13.325c0.949-7.758,0.905-15.53,0.645-23.29
		c-0.311-9.26-0.349-18.545-0.982-27.768c-0.287-4.176,0-8.474-1.021-12.63c-0.355-1.442-0.947-2.018-2.468-1.902
		c-3.393,0.259-6.348-0.821-8.815-3.213c-0.72-0.697-1.186-1.348-0.893-2.453c0.256-0.967,0.213-2.01,0.35-3.012
		c0.464-3.4,0.708-3.626,4.075-4.327c1.905-0.397,3.168-1.963,4.862-2.784c1.542-0.748,3.095-1.063,4.772-1.347
		c2.689-0.455,5.49-0.354,8.078-1.399c0.182-0.073,0.398-0.072,0.601-0.084c10.333-0.602,20.685-1.393,31.016-0.698
		c4.521,0.303,9.028,0.736,13.554,0.629c2.856-0.066,5.641-0.813,8.445-1.396c2.776-0.576,5.681-0.358,8.498-0.048
		C282.028,278.366,282.94,279.362,283.311,280.547z"/>
	<path fill-rule="evenodd" clip-rule="evenodd" fill="#133960" d="M169.519,300.049c-0.01,0.939-0.22,1.795-0.536,2.717
		c-0.945,2.763-1.415,5.648-2.542,8.404c-0.769,1.879-1.732,3.761-2.14,5.805c-0.836,4.19-2.975,7.947-3.902,12.15
		c-0.562,2.546-1.839,5.009-2.533,7.59c-1.055,3.923-2.351,7.763-3.139,11.784c-0.668,3.413-2.382,6.621-3.655,9.912
		c-0.137,0.354-0.368,0.88-0.843,0.652c-0.39-0.187-0.875-0.626-0.923-1.003c-0.456-3.625-1.791-7.038-2.704-10.533
		c-0.961-3.678-1.474-7.67-4.136-10.742c-1.034-1.193-0.963-2.831-1.22-4.153c-0.741-3.822-2.533-7.178-3.887-10.727
		c-1.229-3.219-2.42-6.452-3.628-9.681c1.179,0.762,1.801,2.017,2.301,3.185c1.572,3.675,2.807,7.496,4.421,11.149
		c0.98,2.217,1.637,4.575,1.995,6.845c0.341,2.158,1.486,3.797,2.466,5.381c1.26,2.037,0.908,4.264,1.743,6.322
		c1.511,3.726,2.441,7.687,3.792,12.139c1.289-3.831,2.839-7.007,3.655-10.478c0.551-2.34,1.204-4.659,1.875-6.97
		c1.259-4.333,2.231-8.79,3.945-12.939c1.68-4.066,2.755-8.322,4.266-12.431c1.406-3.821,3.42-7.542,3.8-11.754
		C168.078,301.718,168.401,300.565,169.519,300.049z"/>
	<path fill-rule="evenodd" clip-rule="evenodd" fill="#143559" d="M132.734,20.18c1.527,0.447,1.131,1.525,0.639,2.405
		c-0.583,1.043-0.912,2.509-0.14,2.958c1.042,0.604,2.219,1.596,3.875,0.854c1.665-0.747,3.453-1.476,5.411-1.237
		c0.669,0.082,1.329-0.024,1.918-0.473c0.586-0.446,1.123-0.22,1.617,0.268c0.471,0.465,0.664,0.903,0.456,1.612
		c-0.745,2.547-1.173,5.176-1.369,7.808c-1.03,13.827-1.187,27.693-0.643,41.523c0.176,4.462-0.065,9.123,1.291,13.546
		c0.172,0.563,0.199,1.235,0.079,1.812c-0.857,4.111,0.199,8.2,0.116,12.306c-0.052,2.592,1.133,5.126,0.766,7.791
		c-0.343-0.083-0.741-0.243-0.709-0.61c0.209-2.387-1.084-4.529-0.969-6.939c0.306-6.353,0.079-12.738-0.892-18.996
		c-0.88-5.679-0.483-11.326-0.696-16.984c-0.03-0.807,0.027-1.603-0.426-2.358c-0.225-0.375-0.396-0.965-0.263-1.342
		c1.445-4.087,0.429-8.308,0.714-12.454c0.158-2.29,0.183-4.612-0.002-6.897c-0.393-4.825,0.855-9.531,0.85-14.319
		c-0.001-1.03,0.879-1.774,0.811-2.88c-0.074-1.202-0.327-1.604-1.684-1.485c-2.813,0.248-5.381,1.733-8.27,1.504
		c-1.914-0.152-4.252-2.084-3.717-3.387C132.043,22.879,132.017,21.418,132.734,20.18z"/>
	<path fill-rule="evenodd" clip-rule="evenodd" fill="#103964" d="M270.328,24.339c-0.244-1.063,0.564-1.77,0.933-2.604
		c1.785-4.051,0.639-6.691-3.129-7.657c-0.687-0.176-1.309-0.343-1.914,0.145c-0.458,0.368-1.009,0.336-1.547,0.38
		c-6.518,0.531-13.063,0.592-19.577,0.961c-4.203,0.238-8.513,0.105-12.608,0.859c-3.926,0.723-7.781,0.619-11.634,0.515
		c-6.368-0.173-12.619,1.158-18.979,1.04c-2.027-0.038-4.087,0.701-6.198,0.752c-1.536,0.039-2.003,1.941-3.406,2.359
		c-0.005-0.278-0.011-0.555-0.017-0.833c0.909-1.673,2.338-2.089,4.183-2.556c3.642-0.92,7.453,0.044,10.98-1.358
		c0.181-0.072,0.402-0.072,0.603-0.061c6.033,0.329,12.016-0.811,18.013-0.735c4.315,0.054,8.72,0.334,12.9-0.28
		c6.498-0.956,13.071-0.03,19.505-1.372c1.106-0.231,2.297-0.052,3.447-0.088c1.397-0.044,2.725-0.187,4.132-0.601
		c3.633-1.067,6.457,1.234,7.477,4.706C273.962,19.515,271.9,23.374,270.328,24.339z"/>
	<path fill-rule="evenodd" clip-rule="evenodd" fill="#133960" d="M212.625,386.218c1.189,0.869,1.162,2.332,1.516,3.521
		c0.958,3.225,1.541,3.826,4.82,3.821c3.178-0.005,6.371,0.167,9.529-0.084c3.178-0.252,6.359-0.626,9.497-1.34
		c1.882-0.429,3.865-0.761,5.745-0.851c2.566-0.124,5.054-0.727,7.507-1.154c3.289-0.575,6.627-1.271,9.905-1.946
		c3.446-0.711,6.922-1.532,10.433-2.079c4.025-0.626,8.054-0.302,12.009-0.864c1.828-0.26,4.025-0.143,5.574-1.842
		c0.773-0.849,2.07-0.288,3.121-0.437c-0.439,1.475-1.916,1.249-2.923,1.804c-1.5,0.828-3.202,1.4-4.788,1.337
		c-4.553-0.182-9.011,0.584-13.491,1.02c-2.888,0.281-5.682,1.323-8.576,1.824c-2.152,0.372-4.339,0.8-6.438,1.399
		c-4.112,1.173-8.413,1.073-12.545,2.2c-2.083,0.568-4.409,0.377-6.584,0.953c-6.579,1.741-13.296,0.479-19.939,0.833
		c-1.935,0.104-2.777-1.566-3.313-2.872C213.025,389.851,212.17,388.12,212.625,386.218z"/>
	<path fill-rule="evenodd" clip-rule="evenodd" fill="#0F4077" d="M218.305,55.657c0.768,1.055,0.727,2.277,0.759,3.498
		c0.158,6.012-0.329,12.048,0.459,18.035c0.435,3.303-0.092,6.685,0.542,9.888c0.602,3.043,0.197,6.199,1.291,9.155
		c0.224,0.605,0.135,1.337,0.139,2.011c0.021,4.398-0.296,8.829,0.134,13.186c0.441,4.472,0.938,9.033,2.919,13.199
		c1.193,2.509,1.513,2.582,4.125,1.5c0.3-0.125,0.662-0.1,0.996-0.145c-0.571,1.97-2.177,1.731-3.643,1.632
		c-1.451-0.099-2.513-1.155-2.688-2.366c-0.195-1.349-0.651-2.582-1.005-3.853c-0.947-3.41-0.908-6.983-1.682-10.388
		c-1.386-6.096-0.023-12.265-0.827-18.31c-0.623-4.689-0.158-9.429-0.867-14.023C217.771,70.991,218.617,63.323,218.305,55.657z"/>
	<path fill-rule="evenodd" clip-rule="evenodd" fill="#0F4077" d="M192.252,20.257c0.006,0.277,0.011,0.555,0.017,0.833
		c-0.049,0.767,0.048,1.443,0.711,1.998c1.293,1.083,1.225,2.685,1.155,4.108c-0.048,0.967,0.144,1.781,0.293,2.691
		c0.375,2.283,1.87,2.477,3.658,2.604c5.498,0.389,10.894-1.085,16.389-0.811c2.523,0.126,3.116,0.44,2.949,2.935
		c-0.465,6.919,1.032,13.744,0.875,20.642c-0.795-0.181-0.711-0.821-0.816-1.429c-1.038-5.938-0.792-11.932-0.831-17.914
		c-0.021-3.134-0.273-3.498-3.332-3.378c-5.438,0.214-10.838,1.105-16.31,0.785c-2.744-0.16-3.874-1.184-3.92-3.964
		c-0.017-1.016-0.05-2.034,0.017-3.046c0.084-1.282-0.252-2.315-1.548-2.742c-1.231-0.406-0.852-1.376-0.874-2.195
		C190.658,20.277,191.509,20.321,192.252,20.257z"/>
	<path fill-rule="evenodd" clip-rule="evenodd" fill="#143559" d="M159.756,372.417c0.586-2.731,1.111-5.479,1.774-8.19
		c0.691-2.829,1.583-5.608,2.265-8.438c0.823-3.417,2.068-6.714,2.918-10.104c0.707-2.817,1.34-5.673,2.053-8.492
		c0.636-2.515,1.575-4.929,1.876-7.559c0.106-0.926,0.514-1.909,0.512-2.912c-0.002-0.842,0.154-1.491,1.178-1.492
		c1.064,1.688-0.379,3.091-0.625,4.604c-0.543,3.337-1.19,6.721-2.356,9.878c-1.136,3.076-1.418,6.332-2.6,9.39
		c-0.997,2.581-1.383,5.393-2.181,8.06c-1.471,4.912-2.29,10.008-4.187,14.796C160.302,372.16,159.971,372.266,159.756,372.417z"/>
	<path fill-rule="evenodd" clip-rule="evenodd" fill="#103964" d="M174.407,9.758c-1.392,1.174-3.082,1.281-4.787,1.687
		c-4.547,1.079-9.409,0.06-13.768,2.196c-0.448,0.219-1.065,0.121-1.604,0.118c-3.101-0.014-6.049,0.864-9.061,1.415
		c-2.422,0.443-4.956,0.466-7.427,0.365c-1.452-0.06-2.792-0.148-4.044,0.677c-0.157-1.272,0.48-1.667,1.665-1.632
		c1.758,0.053,3.534,0.171,5.273-0.015c4.098-0.438,8.227-0.775,12.153-2.196c0.188-0.068,0.397-0.157,0.585-0.136
		c3.189,0.354,6.217-0.847,9.368-1.063c2.345-0.16,4.864-0.333,7.228-1.208C171.307,9.477,172.925,9.8,174.407,9.758z"/>
	<path fill-rule="evenodd" clip-rule="evenodd" fill="#143559" d="M277.669,293.534c0.892-1.064,2.081-1.767,3.261-2.407
		c0.881-0.479,0.908-2.113,2.378-1.7C282.033,291.627,280.507,293.481,277.669,293.534z"/>
	<path fill-rule="evenodd" clip-rule="evenodd" fill="#272222" d="M17.433,138.199c44.721,0,89.442,0.001,134.163-0.003
		c57.596-0.005,115.194,0.362,172.783-0.242c18.44-0.193,36.892-0.174,55.334-0.542c2.879-0.058,2.887-0.005,2.887,2.847
		c0.004,40.25-0.015,80.499,0.063,120.747c0.005,2.271-0.908,2.478-2.748,2.477c-45.195-0.03-90.392,0.022-135.586-0.082
		c-3.796-0.009-7.444,1.059-11.221,0.838c-2.133-0.125-4.194-1.364-6.334-0.72c-4.653,1.402-9.434,0.902-14.064,0.539
		c-3.542-0.277-7.09-0.737-10.624-0.541c-30.226,1.674-60.472,0.448-90.706,0.691c-30.219,0.243-60.441,0.038-90.661,0.118
		c-2.175,0.005-2.547-0.748-2.538-2.688c0.066-14.704,0.599-29.435-0.096-44.105c-1.251-26.448-0.161-52.891-0.653-79.33
		L17.433,138.199z M71.243,177.746c0.842,0.549,0.709,1.224,0.822,1.789c1.691,8.496,3.302,17.007,5.217,25.459
		c1.556,6.865,3.196,13.707,5.239,20.438c1.458,4.798,2.211,9.762,3.73,14.535c0.646,2.031,1.873,3.232,4.093,3.28
		c1.141,0.023,2.288,0.353,3.378,0.414c2.138,0.121,4.609,0.55,6.164-1.531c1.085-1.454,1.63-3.218,2.066-5.024
		c1.362-5.646,2.872-11.257,4.289-16.891c1.486-5.903,3.012-11.798,4.372-17.73c1.148-5.011,1.792-10.154,3.189-15.089
		c1.661-5.864,3.302-11.715,4.311-17.727c0.437-2.602,0.804-5.217,0.582-7.88c-0.157-1.875-1.754-3.661-3.188-3.107
		c-1.461,0.564-2.191,0.003-3.144-0.877c-1.378-1.275-2.52-1.088-2.999,0.396c-0.996,3.088-2,6.179-2.835,9.312
		c-1.464,5.489-2.833,11.003-4.189,16.52c-2.148,8.736-4.426,17.443-6.063,26.299c-0.172,0.93,0.177,2.605-0.91,2.59
		c-1.255-0.019-0.887-1.684-1.072-2.687c-0.572-3.108-0.939-6.273-1.785-9.305c-0.373-1.337-1.071-2.613-1.149-4.044
		c-0.133-2.394-1-4.617-1.502-6.925c-0.948-4.357-3.372-8.321-3.539-12.864c-0.193-5.27-1.485-10.318-2.67-15.412
		c-1.666-7.16-7.262-10.567-13.712-8.135c-3.857,1.455-6.695,7.231-5.481,11.286c0.217,0.726,0.069,1.3-0.143,1.952
		c-2.813,8.637-3.744,17.694-5.892,26.483c-1.814,7.422-3.405,14.899-5.104,22.35c-0.119,0.52-0.24,1.163-0.95,1.099
		c-0.623-0.058-0.597-0.699-0.603-1.125c-0.026-1.984-0.808-3.822-1.148-5.744c-0.359-2.027-0.406-4.245-1.358-6.075
		c-1.671-3.213-2.269-6.702-2.602-10.145c-1.025-10.586-2.335-21.119-4.307-31.573c-0.338-1.795-0.633-3.589-1.13-5.352
		c-0.617-2.188-1.98-3.309-4.168-3.486c-2.318-0.188-4.391,0.668-6.505,1.361c-2.203,0.722-4.426,1.915-4.865,4.186
		c-0.87,4.502-0.589,9.038,1.914,13.125c0.835,1.363,1.235,2.818,1.503,4.371c0.908,5.26,2.074,10.483,2.768,15.769
		c0.531,4.043,2.138,7.765,2.893,11.72c0.317,1.661,0.559,3.339,0.941,4.983c1.132,4.865,2.447,9.693,3.449,14.585
		c1.167,5.698,1.371,11.558,2.738,17.236c0.912,3.786,4.261,5.674,7.924,4.285c0.766-0.29,1.473-0.648,2.334-0.49
		c2.171,0.398,3.323-0.637,4.445-2.502c2.318-3.855,1.948-8.263,2.75-12.362c1.414-7.217,3.839-14.148,5.207-21.396
		c1.36-7.208,2.744-14.482,4.679-21.589C70.006,183.648,69.863,180.584,71.243,177.746z M191.61,238.376
		c-0.104-3.929-0.883-7.651-3.487-10.778c-0.583-0.7-0.872-1.528-1.092-2.379c-1.239-4.774-2.421-9.552-3.327-14.413
		c-0.55-2.953-0.504-6.106-2.065-8.836c-0.486-0.851-0.626-1.772-0.756-2.716c-0.865-6.249-2.435-12.335-4.303-18.347
		c-2.708-8.712-5.669-17.346-8.032-26.164c-0.725-2.702-3.753-5.271-6.542-5.43c-1.787-0.101-3.342,0.369-4.325,2.064
		c-0.949,1.637-2.062,3.186-2.936,4.86c-7.116,13.634-11.408,28.282-15.444,43.028c-2.07,7.563-4.136,15.145-7.536,22.255
		c-2.919,6.105-5.815,12.209-7.475,18.813c-0.677,2.691-0.701,5.217,1.398,7.39c1.255,1.3,3.016,1.071,4.515,1.624
		c2.197,0.809,3.94,0.281,4.896-1.716c0.745-1.558,1.814-2.836,2.778-4.217c1.433-2.052,3.376-3.845,3.614-6.545
		c0.406-4.63,1.967-8.938,3.592-13.236c0.518-1.371,1.443-1.957,2.879-2.152c6.843-0.927,13.676-1.931,20.512-2.914
		c1.459-0.21,3.064-0.937,4.335-0.548c1.579,0.482,0.845,2.672,1.624,3.924c0.035,0.057,0.065,0.119,0.092,0.181
		c1.947,4.53,3.999,9.01,5.552,13.71c0.907,2.746,2.045,5.461,3.81,7.813c1.75,2.332,4.999,2.007,6.572-0.453
		C191.431,241.671,191.756,240.113,191.61,238.376z M228.154,245.977c1.383,0.064,2.803,0.195,4.222,0.186
		c5.152-0.034,10.053-1.127,14.522-3.765c4.85-2.862,8.508-7.02,12.267-11.128c4.729-5.169,5.835-11.226,5.335-17.867
		c-0.463-6.151-3.473-10.713-9.026-13.178c-4.989-2.213-10.221-3.901-15.395-5.679c-4.73-1.625-9.55-2.986-14.074-5.179
		c-1.999-0.97-3.335-2.4-3.33-4.669c0.011-5.786,0.661-11.485,2.79-16.929c0.545-1.395,1.509-2.04,3.096-2.089
		c2.951-0.091,5.841,0.134,8.587,1.221c5.488,2.171,10.559,4.912,13.358,10.519c0.991,1.984,3.265,2.291,4.781,3.593
		c0.098,0.083,0.48,0.028,0.548-0.078c0.807-1.28,2.184-2.561,2.227-3.88c0.078-2.386,0.688-4.69,0.699-7.059
		c0.01-2.126-0.078-4.347-1.405-6.028c-4.973-6.295-11.676-9.318-19.599-9.394c-6.882-0.066-13.416,1.665-19.361,5.177
		c-5.008,2.958-9.589,6.559-11.954,12.041c-1.269,2.94-2.313,6.052-3.203,9.141c-0.96,3.333-1.087,7.143,0.444,10.141
		c1.737,3.399,4.627,6.298,8.5,7.662c4.185,1.473,8.539,2.149,12.96,2.209c4.513,0.062,8.885,0.83,13.179,2.142
		c2.61,0.797,5.581,1.53,6.3,4.506c2.068,8.554,2.381,17.07-2.492,24.942c-1.754,2.835-4.37,4.927-7.732,5.336
		c-2.799,0.34-5.706,0.221-8.519-0.1c-3.11-0.355-6.369-0.754-7.831-4.322c-1.861-4.538-5.479-8.014-7.588-12.418
		c-0.701-1.465-2.215-2.49-3.555-2.894c-1.854-0.559-4.586,1.94-4.818,4.017c-0.652,5.85,0.244,11.367,4.051,16.082
		c2.442,3.026,5.181,5.952,9.068,6.859C219.407,246.074,223.75,246.578,228.154,245.977z M347.728,179.587
		c-0.1-3.52,0.23-7.045-0.152-10.562c-0.127-1.165,0.51-1.51,1.544-1.644c2.892-0.374,5.785-0.795,8.703-0.668
		c3.812,0.167,7.512-1.273,11.315-0.774c2.069,0.271,3.594-0.08,4.302-2.258c0.115-0.353,0.404-0.765,0.723-0.917
		c1.465-0.696,2.084-2.061,2.798-3.354c0.91-1.65,0.766-3.227-0.323-4.764c-1.092-1.543-2.657-1.977-4.31-1.499
		c-3.251,0.94-6.564,0.641-9.854,0.803c-3.312,0.163-6.69-0.088-9.924,0.492c-4.509,0.809-9.02,0.789-13.532,0.818
		c-8.75,0.057-17.435,0.977-26.14,1.646c-1.399,0.107-2.372,0.862-3.294,1.797c-0.753,0.764-0.868,1.397,0.02,2.21
		c1.124,1.032,1.351,2.373,1.114,3.896c-0.461,2.985,0.442,4.088,3.414,4.038c4.871-0.081,9.741-0.261,14.608-0.487
		c1.105-0.052,1.698,0.132,1.681,1.344c-0.063,4.265,0.092,8.524,0.589,12.76c1.112,9.5,0.9,19.065,1.453,28.592
		c0.321,5.545,1.575,11.023,1.299,16.596c-0.259,5.191,0.419,10.276,1.395,15.329c0.354,1.831,0.658,3.752,1.833,5.336
		c0.948,1.278,2.206,1.589,3.259,0.418c1.229-1.367,2.455-1.299,3.993-0.831c1.588,0.483,3.888-0.47,4.335-1.916
		c0.9-2.91,1.696-5.887,0.663-8.956c-0.353-1.048-0.401-2.117-0.467-3.201c-0.487-8.067,0.132-16.137,0.038-24.211
		C348.692,199.588,347.916,189.603,347.728,179.587z M284.795,168.097c3.491-0.145,3.732,0.29,2.501,4.346
		c-1.191,3.928-3.819,6.963-5.899,10.341c-0.737,1.197-1.134,2.302-0.71,3.788c0.441,1.543,0.761,3.189,2.352,3.772
		c1.731,0.636,2.446-1.136,3.351-2.098c5.922-6.307,10.977-13.118,12.25-22.028c0.063-0.439,0.409-0.841,0.636-1.254
		c1.637-2.976,0.855-8.56-2.168-10.206c-2.687-1.461-5.34-2.685-8.563-2.693c-3.099-0.009-5.755,1.25-8.566,2.094
		c-1.963,0.589-3.437,1.901-4.428,3.66c-0.633,1.125-1.272,2.227-2.115,3.204c-1.215,1.407-1.611,3.035-0.832,4.713
		c0.789,1.702,2.382,2.328,4.187,2.353C279.146,168.122,281.503,168.097,284.795,168.097z"/>
	<path fill-rule="evenodd" clip-rule="evenodd" fill="#F8F8F8" d="M71.243,177.746c-1.38,2.838-1.237,5.902-2.015,8.757
		c-1.936,7.107-3.319,14.381-4.679,21.589c-1.368,7.247-3.792,14.179-5.207,21.396c-0.803,4.1-0.432,8.507-2.75,12.362
		c-1.123,1.865-2.274,2.9-4.445,2.502c-0.861-0.158-1.568,0.2-2.334,0.49c-3.664,1.389-7.013-0.499-7.924-4.285
		c-1.367-5.679-1.57-11.538-2.738-17.236c-1.002-4.892-2.317-9.72-3.449-14.585c-0.383-1.645-0.625-3.322-0.941-4.983
		c-0.755-3.955-2.362-7.677-2.893-11.72c-0.694-5.286-1.86-10.508-2.768-15.769c-0.268-1.552-0.668-3.007-1.503-4.371
		c-2.503-4.087-2.784-8.623-1.914-13.125c0.438-2.271,2.662-3.464,4.865-4.186c2.114-0.693,4.188-1.549,6.505-1.361
		c2.188,0.177,3.551,1.297,4.168,3.486c0.497,1.762,0.792,3.556,1.13,5.352c1.971,10.454,3.281,20.987,4.307,31.573
		c0.333,3.443,0.931,6.932,2.602,10.145c0.953,1.83,1,4.048,1.358,6.075c0.341,1.922,1.123,3.76,1.148,5.744
		c0.005,0.426-0.02,1.067,0.603,1.125c0.71,0.064,0.832-0.579,0.95-1.099c1.698-7.45,3.29-14.928,5.104-22.35
		c2.148-8.789,3.079-17.846,5.892-26.483c0.212-0.652,0.36-1.227,0.143-1.952c-1.214-4.055,1.624-9.831,5.481-11.286
		c6.45-2.433,12.046,0.975,13.712,8.135c1.186,5.094,2.478,10.142,2.67,15.412c0.167,4.542,2.591,8.507,3.539,12.864
		c0.502,2.308,1.369,4.531,1.502,6.925c0.079,1.431,0.777,2.707,1.149,4.044c0.846,3.031,1.213,6.196,1.785,9.305
		c0.185,1.003-0.183,2.668,1.072,2.687c1.087,0.016,0.738-1.66,0.91-2.59c1.637-8.856,3.915-17.563,6.063-26.299
		c1.356-5.517,2.725-11.031,4.189-16.52c0.835-3.133,1.839-6.223,2.835-9.312c0.479-1.485,1.621-1.671,2.999-0.396
		c0.953,0.881,1.683,1.442,3.144,0.877c1.434-0.554,3.031,1.231,3.188,3.107c0.222,2.663-0.146,5.278-0.582,7.88
		c-1.009,6.011-2.65,11.863-4.311,17.727c-1.397,4.935-2.041,10.078-3.189,15.089c-1.36,5.933-2.885,11.827-4.372,17.73
		c-1.417,5.634-2.927,11.244-4.289,16.891c-0.436,1.807-0.981,3.57-2.066,5.024c-1.555,2.081-4.026,1.652-6.164,1.531
		c-1.09-0.062-2.237-0.391-3.378-0.414c-2.221-0.048-3.447-1.249-4.093-3.28c-1.519-4.773-2.273-9.737-3.73-14.535
		c-2.043-6.73-3.683-13.572-5.239-20.438c-1.915-8.452-3.525-16.963-5.217-25.459C71.952,178.97,72.084,178.295,71.243,177.746z"/>
	<path fill-rule="evenodd" clip-rule="evenodd" fill="#F9F8F8" d="M191.61,238.376c0.146,1.737-0.179,3.295-1.152,4.815
		c-1.573,2.46-4.823,2.785-6.572,0.453c-1.765-2.352-2.903-5.066-3.81-7.813c-1.553-4.7-3.605-9.18-5.552-13.71
		c-0.026-0.062-0.057-0.124-0.092-0.181c-0.778-1.252-0.044-3.441-1.624-3.924c-1.271-0.389-2.875,0.338-4.335,0.548
		c-6.836,0.983-13.669,1.987-20.512,2.914c-1.436,0.195-2.361,0.781-2.879,2.152c-1.625,4.298-3.186,8.606-3.592,13.236
		c-0.238,2.7-2.181,4.493-3.614,6.545c-0.964,1.381-2.034,2.659-2.778,4.217c-0.956,1.997-2.699,2.524-4.896,1.716
		c-1.499-0.553-3.26-0.324-4.515-1.624c-2.099-2.173-2.075-4.698-1.398-7.39c1.66-6.604,4.555-12.707,7.475-18.813
		c3.399-7.11,5.466-14.691,7.536-22.255c4.036-14.746,8.328-29.394,15.444-43.028c0.874-1.674,1.987-3.223,2.936-4.86
		c0.983-1.695,2.538-2.166,4.325-2.064c2.79,0.159,5.818,2.728,6.542,5.43c2.363,8.818,5.324,17.452,8.032,26.164
		c1.869,6.012,3.438,12.098,4.303,18.347c0.13,0.943,0.27,1.865,0.756,2.716c1.562,2.729,1.516,5.883,2.065,8.836
		c0.906,4.861,2.088,9.639,3.327,14.413c0.22,0.851,0.508,1.679,1.092,2.379C190.727,230.725,191.505,234.447,191.61,238.376z
		 M151.228,209.141c0.349-0.042,0.685-0.079,1.021-0.121c4.625-0.578,9.255-1.099,13.832-2.022c2.706-0.547,2.937-0.724,1.994-3.264
		c-2.653-7.147-5.092-14.363-7.271-21.667c-0.157-0.525-0.053-1.448-0.851-1.396c-0.65,0.042-0.751,0.896-0.932,1.451
		c-2.799,8.585-5.375,17.245-8.621,25.68C150.067,208.665,150.322,209.092,151.228,209.141z"/>
	<path fill-rule="evenodd" clip-rule="evenodd" fill="#F8F7F7" d="M228.154,245.977c-4.404,0.602-8.747,0.098-12.949-0.883
		c-3.888-0.907-6.626-3.833-9.068-6.859c-3.807-4.715-4.703-10.232-4.051-16.082c0.232-2.076,2.965-4.575,4.818-4.017
		c1.34,0.403,2.854,1.429,3.555,2.894c2.109,4.404,5.727,7.88,7.588,12.418c1.462,3.568,4.721,3.967,7.831,4.322
		c2.813,0.32,5.72,0.439,8.519,0.1c3.362-0.409,5.979-2.501,7.732-5.336c4.873-7.872,4.561-16.389,2.492-24.942
		c-0.719-2.976-3.689-3.709-6.3-4.506c-4.294-1.312-8.666-2.08-13.179-2.142c-4.421-0.061-8.775-0.736-12.96-2.209
		c-3.873-1.364-6.763-4.263-8.5-7.662c-1.531-2.998-1.404-6.808-0.444-10.141c0.891-3.088,1.935-6.2,3.203-9.141
		c2.365-5.482,6.946-9.083,11.954-12.041c5.945-3.512,12.479-5.243,19.361-5.177c7.923,0.075,14.626,3.098,19.599,9.394
		c1.327,1.681,1.415,3.902,1.405,6.028c-0.011,2.369-0.621,4.673-0.699,7.059c-0.043,1.319-1.42,2.6-2.227,3.88
		c-0.067,0.105-0.45,0.161-0.548,0.078c-1.517-1.302-3.79-1.608-4.781-3.593c-2.8-5.606-7.87-8.348-13.358-10.519
		c-2.746-1.086-5.636-1.312-8.587-1.221c-1.587,0.049-2.551,0.694-3.096,2.089c-2.129,5.443-2.779,11.143-2.79,16.929
		c-0.005,2.269,1.331,3.7,3.33,4.669c4.524,2.193,9.344,3.554,14.074,5.179c5.174,1.778,10.405,3.466,15.395,5.679
		c5.554,2.465,8.563,7.026,9.026,13.178c0.5,6.642-0.605,12.698-5.335,17.867c-3.759,4.108-7.417,8.266-12.267,11.128
		c-4.47,2.638-9.37,3.73-14.522,3.765C230.957,246.172,229.537,246.041,228.154,245.977z"/>
	<path fill-rule="evenodd" clip-rule="evenodd" fill="#F9F8F8" d="M347.728,179.587c0.188,10.016,0.965,20.001,1.082,30.034
		c0.094,8.074-0.525,16.144-0.038,24.211c0.065,1.084,0.114,2.153,0.467,3.201c1.033,3.069,0.237,6.046-0.663,8.956
		c-0.447,1.446-2.747,2.399-4.335,1.916c-1.538-0.468-2.765-0.536-3.993,0.831c-1.053,1.171-2.311,0.86-3.259-0.418
		c-1.175-1.584-1.479-3.505-1.833-5.336c-0.976-5.053-1.653-10.138-1.395-15.329c0.276-5.572-0.978-11.051-1.299-16.596
		c-0.553-9.527-0.341-19.092-1.453-28.592c-0.497-4.235-0.651-8.495-0.589-12.76c0.018-1.212-0.575-1.396-1.681-1.344
		c-4.867,0.227-9.737,0.406-14.608,0.487c-2.972,0.05-3.875-1.053-3.414-4.038c0.236-1.523,0.01-2.864-1.114-3.896
		c-0.888-0.813-0.772-1.447-0.02-2.21c0.922-0.935,1.895-1.689,3.294-1.797c8.705-0.669,17.39-1.589,26.14-1.646
		c4.513-0.029,9.023-0.01,13.532-0.818c3.233-0.58,6.612-0.329,9.924-0.492c3.29-0.162,6.604,0.138,9.854-0.803
		c1.652-0.479,3.218-0.045,4.31,1.499c1.089,1.538,1.233,3.114,0.323,4.764c-0.714,1.293-1.333,2.658-2.798,3.354
		c-0.318,0.152-0.607,0.564-0.723,0.917c-0.708,2.178-2.232,2.529-4.302,2.258c-3.804-0.499-7.504,0.941-11.315,0.774
		c-2.918-0.127-5.812,0.294-8.703,0.668c-1.034,0.134-1.671,0.479-1.544,1.644C347.958,172.542,347.628,176.067,347.728,179.587z"/>
	<path fill-rule="evenodd" clip-rule="evenodd" fill="#F7F6F6" d="M284.795,168.097c-3.292,0-5.649,0.024-8.007-0.008
		c-1.805-0.025-3.397-0.651-4.187-2.353c-0.779-1.678-0.383-3.306,0.832-4.713c0.843-0.977,1.482-2.079,2.115-3.204
		c0.991-1.759,2.465-3.07,4.428-3.66c2.812-0.844,5.468-2.103,8.566-2.094c3.224,0.009,5.877,1.232,8.563,2.693
		c3.023,1.646,3.805,7.229,2.168,10.206c-0.227,0.413-0.573,0.814-0.636,1.254c-1.273,8.91-6.328,15.721-12.25,22.028
		c-0.904,0.962-1.619,2.734-3.351,2.098c-1.591-0.583-1.91-2.229-2.352-3.772c-0.424-1.486-0.027-2.591,0.71-3.788
		c2.08-3.378,4.708-6.413,5.899-10.341C288.527,168.387,288.286,167.952,284.795,168.097z"/>
	<path fill-rule="evenodd" clip-rule="evenodd" fill="#2D2828" d="M151.228,209.141c-0.906-0.049-1.161-0.476-0.829-1.34
		c3.246-8.436,5.821-17.095,8.621-25.68c0.181-0.554,0.282-1.408,0.932-1.451c0.798-0.052,0.694,0.871,0.851,1.396
		c2.18,7.304,4.619,14.52,7.271,21.667c0.943,2.54,0.712,2.717-1.994,3.264c-4.576,0.924-9.207,1.444-13.832,2.022
		C151.913,209.062,151.577,209.099,151.228,209.141z"/>
</g>
</svg>
