<?xml version="1.0" encoding="utf-8"?>
<!-- Generator: Adobe Illustrator 16.0.0, SVG Export Plug-In . SVG Version: 6.00 Build 0)  -->
<!DOCTYPE svg PUBLIC "-//W3C//DTD SVG 1.1//EN" "http://www.w3.org/Graphics/SVG/1.1/DTD/svg11.dtd">
<svg version="1.1"
	 id="Layer_1" xmlns:inkscape="http://www.inkscape.org/namespaces/inkscape" xmlns:sodipodi="http://sodipodi.sourceforge.net/DTD/sodipodi-0.dtd" xmlns:ns1="http://sozi.baierouge.fr" xmlns:rdf="http://www.w3.org/1999/02/22-rdf-syntax-ns#" xmlns:dc="http://purl.org/dc/elements/1.1/" xmlns:svg="http://www.w3.org/2000/svg" xmlns:cc="http://web.resource.org/cc/"
	 xmlns="http://www.w3.org/2000/svg" xmlns:xlink="http://www.w3.org/1999/xlink" x="0px" y="0px" width="400px" height="400px"
	 viewBox="106 196 400 400" enable-background="new 106 196 400 400" xml:space="preserve">
<g>
	<path d="M343.148,221.161c-7.898,20.987-15.277,42.494-22.839,63.82c2.122,2.137,6.631,1.875,10.08,2.687
		c8.435-21.458,16.436-44.768,24.182-67.849c0.983-2.925,1.051-6.916,4.033-8.732c0.225,6.937,1.785,12.544,2.684,18.811
		c-7.841,19.479-13.794,40.847-21.498,60.46c1.511,1.175,3.777,1.596,5.374,2.688c4.444-3.16,7.002-8.384,10.081-12.765
		c8.948-12.772,18.663-26.511,27.543-40.305c5.747-2.315,11.125-5,16.12-8.061c0.189,3.406-2.842,5.398-4.702,8.061
		c-12.809,18.3-26.127,38.825-39.635,57.101c5.933,3.249,10.973,7.391,16.796,10.746c10.422-20.932,20.552-42.15,30.229-63.816
		c14.79,3.574,28.938,7.786,43.67,11.42c2.926,14.985,7.923,27.898,10.75,42.992c-21.066,10.284-42.292,20.408-63.82,30.23
		c1.868,6.416,6.798,9.775,8.73,16.122c23.851-15.113,46.382-31.542,69.193-47.695c0.164,5.765-6.346,10.666-7.39,17.464
		c-20.204,12.044-37.882,26.603-57.768,38.964c0.896,1.337,1.279,3.2,2.014,4.702c15.582-4.014,32.623-10.874,49.717-16.794
		c5.448-1.888,12.022-5.053,16.795-5.372c6.042-0.405,11.81,2.751,18.132,2.687c-26.105,10.84-54.61,19.289-81.952,28.888
		c1.305,4.067,1.771,8.98,2.684,13.434c23.342-8.229,46.563-16.586,69.868-24.854c6.408,13.522,14.567,25.29,21.496,38.292
		c-6.764,13.61-14.729,26.025-22.169,38.961c-22.771-8.579-46.223-16.48-69.193-24.853c-1.072,3.179-1.737,6.76-2.015,10.747
		c23.063,8.179,47.876,17.578,71.881,25.526c3.008,0.996,7.464,0.78,9.402,4.03c-6.863,0.302-12.707,1.624-18.813,2.687
		c-21.392-8.166-43.707-15.411-65.835-22.837c1.407,0.662-1.338,2.402-1.341,3.357c-0.023,3.402,10.31,9.269,13.435,11.417
		c14.169,9.772,30.991,21.227,43.662,29.56c2.314,5.752,5.004,11.124,8.066,16.122c-3.314-0.257-6.183-2.912-8.73-4.702
		c-19.119-13.401-40.118-28.623-60.462-41.647c-3.557,5.621-6.663,11.696-10.748,16.797c22.121,11.241,44.855,21.868,67.85,32.243
		c-3.515,14.852-7.843,28.883-11.42,43.67c-14.542,3.37-28.796,7.031-42.319,11.417c-11.354-22.014-21.967-44.76-32.248-67.847
		c-5.812,2.919-9.749,7.712-16.124,10.077c15.474,24.612,32.424,47.741,49.042,71.205c-5.471,0.096-10.675-5.886-16.795-7.391
		c-12.458-18.219-25.191-36.163-37.62-54.412c-2.171-2.335-2.815-6.114-6.713-3.356c-0.254,5.996,2.735,11.854,4.701,17.466
		c3.847,10.977,7.13,21.921,11.419,34.259c2.035,5.846,5.697,11.606,6.049,16.796c0.397,5.931-2.733,11.779-2.689,18.136
		c-10.804-26.372-19.597-54.746-28.884-82.631c-5.188,0.186-8.747,2.003-13.433,2.688c7.816,23.979,16.686,46.908,24.853,70.532
		c-13.521,6.407-25.293,14.569-38.292,21.499c-13.59-6.785-26.08-14.677-38.96-22.167c8.59-22.535,16.172-46.077,24.855-68.518
		c-3.027-1.231-7.798-0.71-10.746-2.018c-8.189,19.094-14.164,40.296-21.498,61.132c-1.194,3.396-2.896,6.652-4.03,10.076
		c-1.024,3.091-0.769,7.441-4.03,9.406c-0.301-6.864-1.623-12.708-2.687-18.813c7.975-20.687,14.954-42.367,22.169-63.816
		c-1.492-0.601-2.533-1.297-4.031-1.343c-2.93-0.1-8.53,8.895-10.748,12.091c-9.673,13.953-20.794,31.076-28.886,42.988
		c-5.749,2.315-11.123,5.006-16.122,8.064c0.395-3.255,2.778-5.955,4.701-8.731c12.788-18.472,27.796-38.847,40.308-58.448
		c-5.594-3.356-11.775-6.141-16.794-10.075c-11.047,21.197-20.552,43.939-31.582,65.158c-14.276-3.864-28.538-7.743-42.992-11.42
		c-3.378-14.534-6.986-28.842-11.42-42.32c20.55-11.023,42.806-20.341,63.816-30.898c-2.947-5.563-7.775-9.244-10.075-15.453
		c-22.326,15.742-45.179,30.952-67.177,47.024c-0.162-5.771,6.348-10.672,7.389-17.467c19.218-11.682,36.662-25.143,55.085-37.618
		c-0.574-1.896-2.169-2.755-2.016-5.374c-15.814,4.978-31.875,10.456-48.368,16.123c-5.165,1.771-10.723,5.056-15.451,5.372
		c-6.01,0.407-11.751-2.734-18.137-2.683c24.729-10.429,52-18.313,77.924-27.545c-0.246-5.126-2.44-8.307-2.687-13.434
		c-21.841,7.938-43.912,15.655-65.834,23.51c-6.434-13.491-14.528-25.328-21.495-38.291c6.785-13.589,14.675-26.081,22.168-38.958
		c20.782,7.876,42.357,14.967,63.146,22.839c2.214-2.267,0.896-8.062,2.687-10.746c-21.786-7.748-44.685-15.96-67.178-23.514
		c-2.788-0.935-6.905-1.043-8.731-4.03c6.76-0.409,12.648-1.683,18.811-2.687c18.797,7.624,39.535,13.308,58.443,20.824
		c7.597-6.438-3.565-12.024-9.404-16.122c-12.368-8.68-28.455-19.087-38.964-26.197c-2.313-5.75-4.997-11.124-8.061-16.123
		c5.971,1.408,10.24,6.466,15.451,10.077c15.315,10.619,32.685,21.401,47.695,32.917c2.862-6.094,6.721-11.194,10.077-16.794
		c-20.026-10.211-41.201-19.261-61.128-29.562c3.792-14.317,7.747-28.501,11.396-42.988c15.046-2.865,27.882-7.946,42.994-10.748
		c9.834,19.945,19.204,40.361,28.886,60.459c4.746-3.312,9.337-6.787,14.778-9.406c-14.373-22.353-29.702-43.745-45.007-65.161
		c5.764-0.162,10.666,6.349,17.464,7.39c11.268,18.512,24.119,35.443,36.276,53.069c2.657-0.031,3.896-1.479,6.047-2.016
		c-5.246-15.248-9.63-30.512-15.452-47.022c-1.76-4.996-5.065-10.172-5.373-14.778c-0.401-5.957,2.714-11.67,2.687-18.14
		c10.478,24.457,17.939,51.925,27.543,77.254c3.785-1.365,8.098-2.201,12.763-2.688c-7.078-22.253-15.312-43.356-22.839-65.16
		c13.495-6.436,25.328-14.531,38.291-21.497c13.605,6.764,26.025,14.727,38.961,22.167L343.148,221.161z M241.71,338.717
		c-10.956,12.192-21.636,29.72-21.497,55.757c0.142,26.335,12.227,47.991,26.871,61.129c13.578,12.184,31.568,20.275,51.726,21.497
		c46.458,2.817,81.722-31.679,87.328-71.878c2.88-20.678-4.88-46.683-15.453-61.13c-15.031-20.553-42.643-36.311-77.925-32.247
		c-22.701,2.611-38.579,12.98-51.054,26.871L241.71,338.717z"/>
</g>
</svg>
