<?xml version="1.0" encoding="iso-8859-1"?>
<!-- Generator: Adobe Illustrator 18.0.0, SVG Export Plug-In . SVG Version: 6.00 Build 0)  -->
<!DOCTYPE svg PUBLIC "-//W3C//DTD SVG 1.1//EN" "http://www.w3.org/Graphics/SVG/1.1/DTD/svg11.dtd">
<svg version="1.1" id="Capa_1" xmlns="http://www.w3.org/2000/svg" xmlns:xlink="http://www.w3.org/1999/xlink" x="0px" y="0px"
	 viewBox="0 0 479.089 479.089" style="enable-background:new 0 0 479.089 479.089;" xml:space="preserve">
<g>
	<path d="M408.928,70.161C363.684,24.917,303.529,0,239.544,0C175.56,0,115.405,24.917,70.161,70.161S0,175.56,0,239.544
		c0,63.985,24.917,124.14,70.161,169.384c45.244,45.244,105.399,70.161,169.383,70.161c63.985,0,124.14-24.917,169.384-70.161
		s70.161-105.399,70.161-169.384C479.089,175.56,454.172,115.405,408.928,70.161z M403.271,403.271
		c-43.733,43.733-101.879,67.818-163.727,67.818s-119.994-24.085-163.727-67.818C32.085,359.538,8,301.392,8,239.544
		S32.085,119.551,75.818,75.818S177.697,8,239.544,8s119.994,24.085,163.727,67.818c43.733,43.733,67.818,101.879,67.818,163.727
		S447.004,359.539,403.271,403.271z"/>
	<path d="M392.906,73.081c-17.479-17.479-43.754-21.618-65.702-10.474c-8.806-0.353-18.081,0.436-27.699,2.416
		c-28.042,5.776-56.717,21.157-76.706,41.146c-25.369,25.369-36.102,57.587-29.63,88.65c-5.316,8.588-8.203,18.36-8.416,28.493
		c-4.365,2.668-8.509,5.73-12.362,9.2c-14.28,12.857-23.081,28.425-26.158,46.272c-4.248,24.639,4.247,43.583,11.073,58.806
		c8.094,18.05,11.434,27.146-0.97,36.632c-13.88,10.614-27.865,6.837-35.566-1.613c-8.613-9.449-6.357-20.299-0.3-26.86
		c11.277-12.217,9.803-23.113,4.663-29.236c-6.859-8.17-22.85-11.263-38.975-0.896c-9.352,6.012-14.863,16.722-15.518,30.157
		c-1.125,23.098,11.888,49.497,32.382,65.69c14.924,11.791,34.23,17.855,53.399,17.854c14.648,0,29.217-3.543,41.676-10.778
		c22.123-12.847,32.587-34.924,28.709-60.57c-2.7-17.857-4.491-32.07-4.45-43.392c0.015-4.125,3.04-5.663,5.626-5.726
		c2.63-0.063,5.783,1.345,6.003,5.534l0.025,0.467c1.109,20.515,11.884,31.386,20.729,36.893
		c14.959,9.314,37.277,10.762,54.272,3.517c25.083-10.691,30.276-29.447,31.14-39.676c1.275-15.106-4.981-30.688-14.875-37.048
		c-10.828-6.96-22.736-4.454-27.561,1.861c-3.498,4.579-4.24,12.172,4.17,19.751c3.69,3.325,1.994,6.933-0.079,9.374
		c-3.388,3.988-9.643,6.447-13.198,3.603c-8.082-6.465-6.624-11.75-3.72-22.279c1.295-4.695,2.751-10.01,3.448-16.199
		c0.186,0.001,0.373,0.014,0.559,0.014c25.49,0,50.523-11.071,70.93-31.478c19.988-19.989,35.37-48.662,41.145-76.7
		c1.981-9.619,2.77-18.895,2.417-27.703C414.531,116.837,410.387,90.562,392.906,73.081z M387.249,78.738
		c11.355,11.355,16.16,27.029,13.691,42.147c-3.368-13.865-10.059-26.062-19.914-35.917c-9.857-9.856-22.058-16.548-35.928-19.915
		C360.218,62.581,375.895,67.383,387.249,78.738z M200.76,197.785c1.774-2.698,3.869-5.262,6.226-7.619
		c18.977-18.977,49.856-18.977,68.833,0c14.874,14.874,18.241,37.682,9.196,56.025c-1.462-3.74-3.376-7.289-5.724-10.637
		c3.935-13.69,0.137-28.733-9.994-38.865c-7.449-7.449-17.355-11.552-27.894-11.552s-20.444,4.103-27.893,11.552
		c-5.089,5.088-8.625,11.369-10.339,18.232c-3.452,1.095-6.825,2.398-10.097,3.921C193.95,211.328,196.552,204.15,200.76,197.785z
		 M272.699,227.798c-0.314-0.309-0.623-0.621-0.947-0.926c-10.345-9.756-24.183-15.422-38.967-15.955
		c-6.956-0.251-13.802,0.31-20.427,1.628c1.563-3.784,3.854-7.245,6.809-10.2c5.938-5.938,13.835-9.209,22.236-9.209
		s16.298,3.271,22.237,9.209C270.485,209.191,273.68,218.491,272.699,227.798z M283.612,319.374
		c7.477,5.98,18.431,2.232,24.294-4.671c5.726-6.742,5.459-14.979-0.663-20.496c-1.782-1.605-5.658-5.692-3.168-8.951
		c2.327-3.048,9.489-4.739,16.877,0.012c6.403,4.116,12.354,16.331,11.23,29.646c-1.23,14.568-10.572,26.284-26.305,32.99
		c-12.058,5.139-31.88,6.408-46.907-2.948c-10.37-6.458-16.238-17.016-16.969-30.531l-0.024-0.463
		c-0.465-8.822-7.528-13.263-14.188-13.106c-6.65,0.163-13.399,4.919-13.431,13.695c-0.042,11.833,1.785,26.395,4.54,44.617
		c4.602,30.43-13.573,45.927-24.816,52.456c-12.15,7.055-27.399,10.417-42.935,9.473c-16.092-0.981-31.42-6.63-43.163-15.908
		c-18.562-14.666-30.357-38.386-29.352-59.024c0.372-7.628,2.729-17.952,11.853-23.817c5.784-3.718,11.598-5.312,16.584-5.312
		c5.212,0,9.521,1.743,11.938,4.623c3.822,4.552,2.171,11.53-4.415,18.666c-10.095,10.936-9.985,26.428,0.266,37.676
		c9.833,10.79,28.53,16.197,46.338,2.578c17.986-13.754,10.906-29.544,3.41-46.26c-6.713-14.971-14.322-31.939-10.489-54.173
		c2.765-16.035,10.714-30.06,23.626-41.686c14.817-13.34,34.266-20.285,54.753-19.544c12.843,0.462,24.834,5.356,33.766,13.78
		c7.412,6.99,11.998,15.332,13.629,24.794c2.27,13.165-0.378,22.764-2.714,31.233C274.214,299.466,271.415,309.616,283.612,319.374z
		 M354.169,237.528c-18.923,18.923-42.019,29.174-65.417,29.129c-0.035-3.031-0.301-6.26-0.849-9.691
		c15.532-22.278,12.907-53.124-6.426-72.458c-22.097-22.096-58.051-22.096-80.147,0c-0.508,0.508-0.995,1.034-1.483,1.559
		c-3.005-26.144,7.145-52.777,28.61-74.242c34.354-34.356,106.44-61.674,146.913-21.2
		C415.839,131.095,388.522,203.175,354.169,237.528z"/>
</g>
<g>
</g>
<g>
</g>
<g>
</g>
<g>
</g>
<g>
</g>
<g>
</g>
<g>
</g>
<g>
</g>
<g>
</g>
<g>
</g>
<g>
</g>
<g>
</g>
<g>
</g>
<g>
</g>
<g>
</g>
</svg>
